<mxfile host="drawio.corp.amazon.com" modified="2025-08-31T20:50:05.368Z" agent="Mozilla/5.0 (Macintosh; Intel Mac OS X 10_15_7) AppleWebKit/537.36 (KHTML, like Gecko) Chrome/139.0.0.0 Safari/537.36" etag="2HSf8Y4SExWyDjk53ZW0" version="21.7.4" type="device">
  <diagram name="Page-1" id="bQcyVtKF4s8FRvgvHZ9g">
    <mxGraphModel dx="1546" dy="716" grid="1" gridSize="10" guides="1" tooltips="1" connect="1" arrows="1" fold="1" page="1" pageScale="1" pageWidth="850" pageHeight="1100" math="0" shadow="0">
      <root>
        <mxCell id="0" />
        <mxCell id="1" parent="0" />
        <mxCell id="55osS0tkBlGxSEz1cU8t-13" style="edgeStyle=orthogonalEdgeStyle;rounded=0;orthogonalLoop=1;jettySize=auto;html=1;" edge="1" parent="1" source="55osS0tkBlGxSEz1cU8t-4" target="55osS0tkBlGxSEz1cU8t-5">
          <mxGeometry relative="1" as="geometry" />
        </mxCell>
        <mxCell id="55osS0tkBlGxSEz1cU8t-4" value="" style="sketch=0;points=[[0,0,0],[0.25,0,0],[0.5,0,0],[0.75,0,0],[1,0,0],[0,1,0],[0.25,1,0],[0.5,1,0],[0.75,1,0],[1,1,0],[0,0.25,0],[0,0.5,0],[0,0.75,0],[1,0.25,0],[1,0.5,0],[1,0.75,0]];outlineConnect=0;fontColor=#232F3E;fillColor=#01A88D;strokeColor=#ffffff;dashed=0;verticalLabelPosition=bottom;verticalAlign=top;align=center;html=1;fontSize=12;fontStyle=0;aspect=fixed;shape=mxgraph.aws4.resourceIcon;resIcon=mxgraph.aws4.machine_learning;" vertex="1" parent="1">
          <mxGeometry x="230.00000000000003" y="78" width="78" height="78" as="geometry" />
        </mxCell>
        <mxCell id="55osS0tkBlGxSEz1cU8t-14" style="edgeStyle=orthogonalEdgeStyle;rounded=0;orthogonalLoop=1;jettySize=auto;html=1;entryX=1;entryY=0.25;entryDx=0;entryDy=0;" edge="1" parent="1" source="55osS0tkBlGxSEz1cU8t-5" target="55osS0tkBlGxSEz1cU8t-7">
          <mxGeometry relative="1" as="geometry">
            <Array as="points">
              <mxPoint x="230" y="292" />
              <mxPoint x="230" y="292" />
            </Array>
          </mxGeometry>
        </mxCell>
        <mxCell id="55osS0tkBlGxSEz1cU8t-5" value="" style="shape=image;verticalLabelPosition=bottom;labelBackgroundColor=default;verticalAlign=top;aspect=fixed;imageAspect=0;image=data:image/png,iVBORw0KGgoAAAANSUhEUgAAAJoAAACcCAYAAACHprIKAAAKsmlDQ1BJQ0MgUHJvZmlsZQAASImVlwdUk9kSgO//p4eEFoh0Qg1FkE4AKSG0AEqvNkISIBBCCAQVsSGLK7gWVERQEXRVRMFVKWLHgm0RVMC+ICKirosFUVF5f+AQ3H3nvXfenDOZ759/7ty599ybMz8AZB2OWCyElQFIF2VLwv29abFx8TTcEMADNUTJQJPDzRIzQ0ODASJT9u/ysRtAMnvHSpbr39//V1Hh8bO4AEChCCfysrjpCJ9A9CNXLMkGAHUY8RstzhbLuANhNQlSIMLPZJw8yZ9knDjBaNJETGQ4C2EaAHgShyNJBoA0E/HTcrjJSB6SbA02Ip5AhHAewh7p6Rk8hE8jbIbEiBGW5Wck/pAn+W85E+U5OZxkOU+uZULwPoIssZCz9P/cjv8t6ULp1Bx0REkpkoBwxKoie/YsLSNIzqLEuSFTLOBNxE9wijQgaoq5Waz4Kc4SRrCnmMfxCZLnEc4NnuIkgZ88RpDNjpxifpZvxBRLMsLl8yZJWMwp5kima5CmRcn9KXy2PH9uSmTMFOcIoufKa0uLCJqOYcn9Emm4fC18kb/39Lx+8n1Iz/ph7QK2fGx2SmSAfB840/XzRczpnFmx8tp4fB/f6Zgoebw421s+l1gYKo/nC/3l/qycCPnYbORwTo8Nle9hKicwdIoBC2QAIaISQAPByJMPANn8JdmyhbAyxEslguSUbBoTuW18GlvEtZ5Js7OxcwRAdncnj8Z76sSdhKjXp31rGgBwPzs+Pn5q2he0CYDjyDkidkz76JsBUNIG4GoVVyrJmfShZT8YQARKyP+CJtADRsAMWAE74ATcgBfwBYEgBESCOLAQcEEKSEcqXwzywGpQCIrBJrANlINKsBccBEfAMdAEToML4Aq4ATpAF3gIesEAeAWGwUcwBkEQDiJDFEgT0odMIEvIDmJAHpAvFAyFQ3FQApQMiSAplAetgYqhEqgcqoJqoN+gk9AF6BrUCd2H+qAh6B30BUbBJFgN1oVN4VkwA2bCQXAkvABOhjPhXLgA3gCXwdXwYbgRvgDfgLvgXvgVPIICKAUUFWWAskIxUCxUCCoelYSSoFagilClqGpUHaoF1Ya6g+pFvUZ9RmPRFDQNbYV2Qwego9BcdCZ6BXo9uhx9EN2IvoS+g+5DD6O/Y8gYHYwlxhXDxsRikjGLMYWYUsx+TAPmMqYLM4D5iMViqVg61hkbgI3DpmKXYddjd2Hrseexndh+7AgOh9PEWeLccSE4Di4bV4jbgTuMO4e7jRvAfcIr4PXxdng/fDxehM/Hl+IP4c/ib+MH8WMEZYIJwZUQQuARlhI2EvYRWgi3CAOEMaIKkU50J0YSU4mriWXEOuJl4iPiewUFBUMFF4UwBYHCKoUyhaMKVxX6FD6TVEkWJBZpPklK2kA6QDpPuk96TyaTTcle5HhyNnkDuYZ8kfyE/EmRomityFbkKa5UrFBsVLyt+EaJoGSixFRaqJSrVKp0XOmW0mtlgrKpMkuZo7xCuUL5pHKP8ogKRcVWJUQlXWW9yiGVayovVHGqpqq+qjzVAtW9qhdV+ykoihGFReFS1lD2US5TBtSwanQ1tlqqWrHaEbV2tWF1VXUH9Wj1JeoV6mfUe6koqimVTRVSN1KPUbupX2bozmDO4M9YN6Nuxu0ZoxraGl4afI0ijXqNLo0vmjRNX800zc2aTZqPtdBaFlphWou1dmtd1nqtrabtps3VLtI+pv1AB9ax0AnXWaazV+emzoiunq6/rlh3h+5F3dd6VD0vvVS9rXpn9Yb0Kfoe+gL9rfrn9F/S1GlMmpBWRrtEGzbQMQgwkBpUGbQbjBnSDaMM8w3rDR8bEY0YRklGW41ajYaN9Y3nGOcZ1xo/MCGYMExSTLabtJmMmtJNY0zXmjaZvqBr0Nn0XHot/ZEZ2czTLNOs2uyuOdacYZ5mvsu8wwK2cLRIsaiwuGUJWzpZCix3WXbOxMx0mSmaWT2zx4pkxbTKsaq16rOmWgdb51s3Wb+ZZTwrftbmWW2zvts42ght9tk8tFW1DbTNt22xfWdnYce1q7C7a0+297Nfad9s/9bB0oHvsNvhniPFcY7jWsdWx29Ozk4SpzqnIWdj5wTnnc49DDVGKGM946oLxsXbZaXLaZfPrk6u2a7HXP9ys3JLczvk9mI2fTZ/9r7Z/e6G7hz3KvdeD5pHgscej15PA0+OZ7XnUy8jL57Xfq9BpjkzlXmY+cbbxlvi3eA9ynJlLWed90H5+PsU+bT7qvpG+Zb7PvEz9Ev2q/Ub9nf0X+Z/PgATEBSwOaCHrcvmsmvYw4HOgcsDLwWRgiKCyoOeBlsES4Jb5sBzAudsmfNorslc0dymEBDCDtkS8jiUHpoZeioMGxYaVhH2PNw2PC+8LYISsSjiUMTHSO/IjZEPo8yipFGt0UrR86NrokdjfGJKYnpjZ8Uuj70RpxUniGuOx8VHx++PH5nnO2/bvIH5jvML53cvoC9YsuDaQq2FwoVnFikt4iw6noBJiEk4lPCVE8Kp5owkshN3Jg5zWdzt3Fc8L95W3hDfnV/CH0xyTypJepHsnrwleSjFM6U05bWAJSgXvE0NSK1MHU0LSTuQNi6MEdan49MT0k+KVEVpoksZehlLMjrFluJCcW+ma+a2zGFJkGR/FpS1IKs5Ww1pkm5KzaQ/SftyPHIqcj4tjl58fInKEtGSm0stlq5bOpjrl/vrMvQy7rLWPIO81Xl9y5nLq1ZAKxJXtK40WlmwcmCV/6qDq4mr01b/nm+TX5L/YU3MmpYC3YJVBf0/+f9UW6hYKCnsWeu2tvJn9M+Cn9vX2a/bse57Ea/oerFNcWnx1/Xc9dd/sf2l7JfxDUkb2jc6bdy9CbtJtKl7s+fmgyUqJbkl/VvmbGncSttatPXDtkXbrpU6lFZuJ26Xbu8tCy5r3mG8Y9OOr+Up5V0V3hX1O3V2rts5uou36/Zur911lbqVxZVf9gj23Kvyr2qsNq0u3Yvdm7P3+b7ofW2/Mn6t2a+1v3j/twOiA70Hww9eqnGuqTmkc2hjLVwrrR06PP9wxxGfI811VnVV9dT64qPgqPToy98Sfus+FnSs9TjjeN0JkxM7GygNRY1Q49LG4aaUpt7muObOk4EnW1vcWhpOWZ86cNrgdMUZ9TMbzxLPFpwdP5d7buS8+PzrC8kX+lsXtT68GHvx7qWwS+2Xgy5fveJ35WIbs+3cVferp6+5Xjt5nXG96YbTjcabjjcbfnf8vaHdqb3xlvOt5g6XjpbO2Z1nb3vevnDH586Vu+y7N7rmdnV2R3Xf65nf03uPd+/FfeH9tw9yHow9XPUI86josfLj0ic6T6r/MP+jvtep90yfT9/NpxFPH/Zz+189y3r2daDgOfl56aD+YM0Luxenh/yGOl7OeznwSvxq7HXhnyp/7nxj9ubEX15/3RyOHR54K3k7/m79e833Bz44fGgdCR158jH949ho0SfNTwc/Mz63fYn5Mji2+Cvua9k3828t34O+PxpPHx8XcySciVYAhSiclATAuwMAkOMAoCB9OXHeZG89IdDk98AEgf/Ek/33hDgBUIcYWVvEOg/AUURNvQBQRJ5lLVGkF4Dt7eU61QdP9OwywSJfL3t8ZHR/y4JV4B8y2c//UPc/LZBldQD/tP8CoRYLWLp5z4sAAACWZVhJZk1NACoAAAAIAAUBEgADAAAAAQABAAABGgAFAAAAAQAAAEoBGwAFAAAAAQAAAFIBKAADAAAAAQACAACHaQAEAAAAAQAAAFoAAAAAAAAAkAAAAAEAAACQAAAAAQADkoYABwAAABIAAACEoAIABAAAAAEAAACaoAMABAAAAAEAAACcAAAAAEFTQ0lJAAAAU2NyZWVuc2hvdLLpsm8AAAAJcEhZcwAAFiUAABYlAUlSJPAAAALbaVRYdFhNTDpjb20uYWRvYmUueG1wAAAAAAA8eDp4bXBtZXRhIHhtbG5zOng9ImFkb2JlOm5zOm1ldGEvIiB4OnhtcHRrPSJYTVAgQ29yZSA2LjAuMCI+CiAgIDxyZGY6UkRGIHhtbG5zOnJkZj0iaHR0cDovL3d3dy53My5vcmcvMTk5OS8wMi8yMi1yZGYtc3ludGF4LW5zIyI+CiAgICAgIDxyZGY6RGVzY3JpcHRpb24gcmRmOmFib3V0PSIiCiAgICAgICAgICAgIHhtbG5zOmV4aWY9Imh0dHA6Ly9ucy5hZG9iZS5jb20vZXhpZi8xLjAvIgogICAgICAgICAgICB4bWxuczp0aWZmPSJodHRwOi8vbnMuYWRvYmUuY29tL3RpZmYvMS4wLyI+CiAgICAgICAgIDxleGlmOlVzZXJDb21tZW50PlNjcmVlbnNob3Q8L2V4aWY6VXNlckNvbW1lbnQ+CiAgICAgICAgIDxleGlmOlBpeGVsWERpbWVuc2lvbj4xNTQ8L2V4aWY6UGl4ZWxYRGltZW5zaW9uPgogICAgICAgICA8ZXhpZjpQaXhlbFlEaW1lbnNpb24+MTU2PC9leGlmOlBpeGVsWURpbWVuc2lvbj4KICAgICAgICAgPHRpZmY6UmVzb2x1dGlvblVuaXQ+MjwvdGlmZjpSZXNvbHV0aW9uVW5pdD4KICAgICAgICAgPHRpZmY6WFJlc29sdXRpb24+MTQ0LzE8L3RpZmY6WFJlc29sdXRpb24+CiAgICAgICAgIDx0aWZmOllSZXNvbHV0aW9uPjE0NC8xPC90aWZmOllSZXNvbHV0aW9uPgogICAgICAgICA8dGlmZjpPcmllbnRhdGlvbj4xPC90aWZmOk9yaWVudGF0aW9uPgogICAgICA8L3JkZjpEZXNjcmlwdGlvbj4KICAgPC9yZGY6UkRGPgo8L3g6eG1wbWV0YT4K78HeHgAAJAxJREFUeAHt3QeYJEUVB/BGMOec9QyomHNC5RAjJhAVxcCJIlkBEU9BAfUjqZ8oKBJEJKkoIIKICUEFVFRUjBgAMeectXy/kpqt7Z3d2z12dm97+n3f7PT2VFdXV/37pXr1aq0U1Iwp/fvf/25+85vfNF/5yleaT37yk815553X/OAHP2h++9vfNv/5z3+m7ZWrX/3qzfWvf/1mvfXWazbccMPmXve6V3Pzm9+8ucMd7pC/11577WmvHdcf1hnXB/fcl156aXPAAQc0559/fvPjH/+4+eMf/9is6r0Dovvd737NM5/5zGajjTZqbnOb2zQ3uMENmqtc5SrNWmutNc7dOeOzjxXQgAinwsU++MEPNqeeempzwQUXZID997//HdpRwHPVq161ue51r9vc/e53b5785Cc366+/fnOXu9ylufGNb5wBNvTC/uSkHhgboAESkQhYZ555ZvPxj3+8+eEPf9j885//nNQh9T/rrLNOc+tb3zpzLiKSaLzzne+cAea3nmbfA2PTW7///e+bY445pnnf+97XXHzxxc2f/vSnZjouVrrv9re/fbPvvvs2D3nIQ5pb3OIWzdWudrVePJbOmeN3p4FGVP7hD39ovvCFLzSnnXZa5mL0sn/961+z6iY622c+85nM9R73uMc1N73pTWd1XV9oag+sFYPRSasTt/rZz37WnHTSSc0pp5zSXHTRRc3vfve7oVyMgq98uyuIxxvd6EZZfG677bbNE5/4xCw2r3GNa/S62VQszXims0D7yU9+0pxwwgnNoYcemi3K6bgYRZ8eBpT/+Mc/hnYWIC5btiwbA5tuumnz1Kc+NQNuaOH+5NAe6BzQcKZf/OIXzbHHHtu8613var7//e9P4WIsyetd73rZTUEk8oP9/Oc/bz7xiU9kfxrO1+Zueo+Oxhi4733v27juCU94QvancW0AbO/eGIqxfLJTQAOyn/70p82JJ57YvPvd726+9a1vTQIZIBCHN7zhDZtNNtmk2WyzzTLYuClws29+85vN2972tgw4YGORDgMchy3A3fve924e8YhHZCftox71qAy6HnDDwdYpoHG6FnFJdLbF5bWuda3mgQ98YEP80be4K3CpQnxsLNKvfe1rzYc+9KHmox/9aPaxld/rb6AlUoldetyKFStyfRtssEHmlnXZ/rhpOgE0XOeXv/xl8573vKc5+uijm+985zuTOBFQXPva126AYLvttmse/OAHz+hs/dvf/pa5Ia54ySWXNOecc07mbqashnE4gFt33XUzwHC6xz72sXlqiksEhyNax506ATQ+MXOV++yzT7YuidBCQEYfe9jDHtbsvvvuzUMf+tDmmte8Zvl52m91fO9738uGBAD/6le/ar74xS9mDofzDQOcyoDqrne9a3P/+98/O3rpcTe5yU2yyNaWcSQv7toPf/jD977Tne60pJ+fIv+BD3ygOeuss5q///3vk54FqMxJ7rHHHhlk9KvZEFDQ3W51q1tlY+E+97lPBpH/GRs6bxgBoCkuXPUb3/hG5rT8ceZEZwPwYXUu9XMHHnhgs3Z4yvf2pmL917nOdRo+oqVE3BInn3xy1s1wnTY3Mye5cuXKLDbnOm0EbK7BkW55y1vmPjJLcI973COLYuIad6vvWfrOeVNeprnofTidOoDN8bhwt09/+tPNlltu2awdnbQ3EcEd4A2mvyyVTsA9fvSjH2WgfepTn5o04J4BQFiWm2++eX6JCghW5xvgzAxQ/k2uAxur0/lhhke5x1/+8pfM1bhZWLIMEvXURkgp27Vvzy4IwewMSiE6U/iQUrD8GLulQ/GSpJgcTzHoZjcmfUIRTzvssEMKl0UKN8W8P5R7qzdmHNJxxx2XnvOc56QA9qQ21G0K4KcAWAr/W/rIRz6SQq+c9zataRWeccYZKUKoUkiVtM4b3/jGJgZkSeoP9CTc2PxlTUUh32qrrZq73e1uWVTVv8/HMY7JorznPe+Z74HLPfKRj8wWqvlRYrP2wwUIskHBguV28dvy5cuz722pSJC59tu5557bCGZgHK2z2267zfX6NaY8xd+DtHUk0a8cqQYf6EZNxKfZAhG3wCZi92Mf+1hz+umnT/HDcQwDGx0OmWEgTrtGXqwyLtw/Szp6A0djAZYHKoNl4G5729tmh2o5N+pvXIkhRXfDRX1YuIIrcbeatJcBxlJWniHWZQK60b/uI+xB3GFY+LUBpnAvhkhyTxyOO2THHXdsttlmm+aOd7zjFM5KdH7uc5/LXM/L0jXSD8aBRMG9lzRHm25wPKD5zMUAWmmTNhCnLF+zEgcffHDmvuV3XM287FFHHZXnWy1u6RqFjzbroF6kJc3RiEgDOUwPW0yQFcBoF0dtWKSZuxHnNZnS4tj97ne/23AFdI3oq174yy+/fGkDDdcwod0GFb9NO3JjsQYR2ISEc1ryUeJuNeFsrDOD0TWis+6yyy5Zh17SHM2DDONopoCEb+MYawKxukxdbbzxxpnD1W2iKHPmanMXafvtt2923XXXpc3RAI2nXpRETRRt4siKp+JGqH9fjGOcjSgxDdUmOkwXRafn9Nz777//0gaaB7nZzW6W/WWOCxUuUcJ81gTORrxrK52NyC+krdwf003Sl3JL+TuHSi3lBzB43BgcpW0yeDEFkiNty1xbu8xi/A9YPuNGS1pHM1iA9oAHPCDrQHShQgZTdIV1nBYLrwkilOJfQsRLO8vL0sXZgfKMvpc80AyQYMYXvOAFOW1B/XCO+aqOPPLIvK5zMcUT4FuTMEzpFzXTdaB1wmHLP8V9wCdlfrHWycyHskCBzHkRr+LuFppwVPk+WJhtYjl3HWhLnqMZNOJnWay7xNVk+vF/TSw6E90HHXRQXnRiEctCilJTZRdeeGGecmpzNG0FtK5H3669d1A9KEv12PwiESTrD+cnXagGk2MRuDgKd4IIDwPMIholCQn68pe/3LzjHe/IE+m1+Gb6m3qyKov4bztzR9muBa87dIfOUCjbKcCUYiVUipDrFAM5JRDRuViskgMVzz777OSaUVGAO33+859PL3zhC3MAYHCvSe2JKNsUojxFJMdI2zGq55tLvZ3Q0crbWcTQ0572tBxYiJt89atfnRRGxPIT8cH1QaR+/etfzyukBDByAM8XlQXJ73znO7PeKG6uJhxYiBBuZoqqLe7rsl047ozorAcDYBgIMjESo/SiWowqCwiicwUhEqV+N6NA/ALB6lK85TmPh0UZRxxxRAb0ML3MeoOtt966ecYznpFFeA+01e3xRb6OFYdT8LPhbJy2f/3rXyc5S4HCb5dGKLilcaxWnnt60+robixcHNI6ULnYPvvZzzZ//vOfJ/UEX5/6zQE+61nPWrS4uUmNWoB/OsnR9BsOAWyW2/lYREx8tY0EZYGtGAq4jwXJFHUhLrMBHHFsbSnuyGd3/PHH5xXutZvFfYBMeLmwIR9ct+uczHOjTqxU//+jTP8XEHA0+TQOP/zw7FfDzYYRMLBIJW0h1gCDmKtnHcp16uAqkavDgpQwLvJKeWK5XT9AibolLnEyInpcQKa/xgJoHtTAm/+0/tOKdjH7YtaAok0AgJOJ5eeXk69DtGztVKXTAVlYuFnZJ3a5Ltq6oLr5yESbbrHFFjm5jGiTcQKZPuis6PRwNRlYQGHpSXzMUCDaKP7EKa5XE8AQp5dEkher4YGIOMWJcDflS7K/cGHk39t1uCdQyVwkJuvxj3/80EDN+r5dPR4boNUDiFuV/Ga+caZf//rXQ7kRS5R1aiEJ0NHfEGcvQ0OEL/0PEc/KIyvRRZU897nPbXbeeecsNp0bN06WOyP+jCXQDDawAYoVSr7pZTjSMGOB2GVRyqNB4ZeGgRjG2ehdj370o3NuNKBzTt08/S960YuaZz/72dmSdX5cQQZsY6OjlTdrum8AE04kezcn77e//e0p4rS+lt5l8a/cEpL7WcdJFIv/p68551MHOdbXj9txD7QrRhzXopcBXOTGyClGzRxcdtllQw0Gl+FSxUKl6Fv6TxTjaPQ5v/f0/x4YS9E5bPBxIyDjO7vd7W6XP6alnKP0t90V6igiFRjFmtHh6G7WMYxDtqBh/TjdubEHGi7GqvzSl76U3RSAJYpC7g6OXnpXAZk50rZlqWOB1DQWHc63MvQxlu2462YFeGMNNFaiaaL3v//92ZErF4YUpaxQ4KGHSbxnkt5yOVwKiFiefm+TGQZhSOrA3fjoAE7o0rhzuLHU0YCEuJN1++hwuAIHfcx5uhVQ4GqicSU+5rQ1XcTyBExGg0BK4rK4M9qgYwTw2/HZsT59dzW40ZSbPR1morHjaCbWzQhYimdPARvBAlARicQkwHHQAiDudodIE0+McoPwjZme4oglZolGE+ftGQH/F5cIVwjOBsTCyLvG3XBw0oDaMN1nbDga8OgEU0/eQLukEIFF/6rfRrMFdDOZtU1+2wRW6FHxgxUjoCxSBlocbth0lnrVB1zcIfaUAtQucTe6q89MtPqBVzPVuob9RrxR1CMFaBZ7QoJwmzbIcBwryU2kSxdPbNq+pw0KgAM8VqmwIko/l4jJdf63NuCA3Meb75vYBmLuEPrbUiczI2V2ZNpnic7uNIUIzKHSr3jFK1KIrRQgmRROHR2T//dbePPTnnvumcOvQ7GfdXh1iMkU4jO9973vTQHOFL60FOAcep8Acwr9LT3lKU9JsUFtCt2w0/1fHs5b3VkCllh9lGIaKIViPu3Ah98rPf/5z0+RqyOFJZqC66xWnwCb+4UoTcuXL8+AKkBuf2vPk570pLy+IXTBFFxwte65VC7qtDEgGFHMvjg0row2YffmJOlhO+20U1b4iUkidHWozJ/aIESUh3qIWcYC10dNRYQK+aYrEsElMqQu15njpfJGzLWdYV2mAFgKHWiouMRRYt/NFI7aLPbC6pzrLWYsjytqQ1hjKQIdcwr06cSpNkbMW4qFzrktM1a8RH/srOgMxTxFhGwKi2+KyAxFPoMsgiDzXgHzDbIaC2F0pJh5SOEUTuFLS+Gfm9IeeiOw0duCw3VSjHbS6mRRisAoVl4tflh5ppde/vKX5+QwxN0oiePWYhRRHkQpcS1vm6DKIk4DmFl8ai+rlxXL8u2Sv62TOposQmEBNiJfiyMWmDhXhe7st99+GWRtt8WoAEdPA2i6mwhf9zW/2t4jgd4myBLAuE5EhnSFOsnRcIoSCVsPFG7Gf2UQF4Nb4G7uvSzyhOBapr/ErhXOpq2mwkyNyXerjDZ3gVbPvFrDn9z0kXRVNTfTZINmCsmA4zKLQTibUCTZj1asWJEjfGvxbeoKV7Mu1FxqV6iTQKPztOceDZhJ7jUl/YApLntVCfWmw9VkJsPEfWxoNonb1WWW2nEngWZuEajaVCa62+cX438c1QT7JptsksVpzdW0hzi16h1n7gJ1EmgG0KKTdig1/Ue0RlukLtZAeiFYl7J1S6RcE65s/YEIEsdLnToLNGE9bQ8/A4E4srRuTQEbTiaqg+4IeDUJnmwniKl/X0rHnQSaoEUxZHxWtdIvFs36zMMOOywnUl4TwKZ9uK8oEZy4Ju3DhWurtP59KR13Emg4GcenyNiaqxk4ITqy/dhP06KTNYFYwVwZbZcLnVLg5bB52jWh3XNpQyeBpgNwtJJMpQabwQO2vfbaK0fZDsudNpcOnI+ydEkrr4bFdGlvr6PNRy+PqA5edXH6/FXcB7UIxdlK3oy3vvWtOZHxYlt3wFa3cUTdsmjVdpajFS4hUzerjt5WD6TpHhbdIYcc0rz2ta/NDlLzjzhIT/PfA5PNnPmvf1FrBDapCmzlZ7ZA7BfluogioDLfaDJbCLbf5ESz4olDdaFIe4bFrLk/q9RzLHXq5KR6PSj0M6vHxefTxwRDsj5rIkoNtCkfCfW4PwoH5Pitdbz6uvk6JsYlCLSIueaoJt8FZQoEGHUb5utZpqun0xytPLSFJPaLWrlyZeZmVkCx5ACsEFFKdAKj1U1Hx4T3ipiL3GyzzbKiTucbBWfRBmtFh60RBXYuj1Hctzz3Qn13nqOVjiycTZgOx6hVUbUYLeWIMXONnLslpo14NRHODVEvuyvXrO63e1mmZqX8eeedl8V7qYs+KR2W9PDD9vgs5ZbK99gAzYAAG8CIC3MsQBInG7b0TnnL5iz+pb9x9DpeFiE+gEp3qo0L5edCOJl1pvaHsvhWmvqiO6pXOzfYYINsyCykvjiXZ5hL2bECmo4hhjhHxXuJtAUYehvv+7D0BgYf51Pm4osvzuWA0+DT31YXbHRCi2a4V8Sk1bqZNkpD+uIXvzgHSi51/Sz3+95BDsaJgIMYZCTQ3R7zmMdk0Bhw3nlAKtyl9EsBHF3Kbnl0PCkScDd1zRYM6sEpcci3v/3tWTy7XyFt47j1EljR3g4hKuWW2vfYcbR6gIADVwIYLg3Kt0R6cmr4DYerDQYgIWbpbEApw7djXn1cclVgcz3dD8je8pa3NOeff/6UVe10wFikktPEc83guJ2gePieogdCdKUAQYowohQgSK961auShcUBnimrlmLg87ngPrnM7rvvniIqNi+vC2BO25/qjznWvCI+ADS03gB9XjEVonzaepbiD2PN0WpOQWQRm8K9cRJrC3Az3K3obzHA9SX5mE8OdzNJT4zKo9b2vakH57PttgxGEsK09cEiMmOtabY0uyIyS4f1QCs9ccU38cdRyn8FcDaiIBYZBADXtlCBD9j44ExpUfKJ0uJ3MyMhAoPiL4eYRDDtJDBAxriQ8E8uNQtYgLZTtBTZ8EK2mUgNX1eKnGo5AUxEwuacGsRmAGHSh5gNgKUiSgN0KWYa0kte8pIUnC6FNTmpfLk+QJ2e97znpfDbpa6JzDJWlgIN5AGW762zYKKnyT3AMsS1TBedfPLJed2o/QZqY8EVuJNkyXZL8Zvdh5UjOttlcU/5Niwu5spgAbNgu0jriFwohF1j2z1N7QF9w0NPd+J+AIiTTjopLx4BouIHI0qFHPnNOaK0/FbX6np1xe7EzdOf/vScYKarIPPca8VbNuBo+US8kT3N3AM4E73MTAEJwB82l9h+nEz0rxAm0SLSlDrXZVoHq+9pbj0AFNQMliPAMBxmAzQ+Mk5imSRFZdjehxHQdZDp3Y6ZNnMDzFxLE4ssRk5Xbg8ujVNPPTUvdJmpLiKRuKWWbLzxxjnbN8cw4I0L9UCbw0gDGeU+Mjrmzcckk+H2GKaDlWrNW9pYVki5ZXX8bNwn48DFSh/47oFW90brGAcrU06CEqUpEM7DisTRpgMYdYTjVwQGMSmrt41licnO+cdafTbdvz3QWj1TxCNORUTK4C3jtrTxl156aQaYMsMIl8KtAEz0haBJkb242DiJyWF90wOt6hUAAjB51az9lPuCZYl78fC3/WDVpdl/ZjZALg0+MTpYp3PS1g8/i+OxBxrw8HUBkxAgucmEAZlOEv06k3gsc6MU/Y022ihzMSvOZSzqsk9sFriaUmRsgQZguBSORTTSwYjHsjJ8Ju4FYFwarMhI4Z49+hYsmxHoATYFY/nE2AGNeAQiFuMJJ5yQt+sRUo174WwzESVffJgd7zhaxfRL246jjZsVOVM/DfttbIAGXJR7FqOARRak8B4K/nTKvQ4DLhyMxYiDcVEAGiWf87UH2DBYTT3XeaABkQlxXMtqIzqY5XSSFc+kf/F/cUWUdKRCeKx4t7ClhABN7c7+zHQ90GmgARmRKHTaSqOzzjorA6yO0W93DA5F/5IgD+eyZyfxyEUxm3Dtdn39///vgc4CDZiE9Jx44onNhz/84bxHJ8tymJgkHinxuJfIWhakgEfRFYIYic6erlwPdBZolsfZa8BeUAA3HRfDwQBMLJhwHXtDLYu1m3QyAOxpfnqgs0ATxkPRFxs2DGR0MNYivxeA4WCcrPSvXsGfH3DVtXQWaHxkXBhtUQlgwFTWcwKYfLe9F7+GxfwfdxZoRJ+oiTPOOGPA0YhCepc5yIjRzxzMvGQvIucfWO0aOws0gLIQ13ylbD38aLavXhEZggQrmiYa10iKNggW4v+1QrQMD0VYiLuP+B70NPOXdDXEghTVOu6RFLkzFvhPp4GmL71H5V0iInsxucAIu+J2nQfa4nRrf9d2D3R76U37afv/F60HeqAtWteP1417oI3XeC/a0/ZAW7SuH68b90Abr/FetKftgbZoXT9eN+6BNl7jvWhP2wNt0bp+vG7cA228xnvRnrYH2qJ1/XjduAfaeI33oj1tD7RF6/rxuvGc49FKboqyXY2IVZvP27dIcroukGV4sgghMWujWn3uPhYtl1XxFsHYVKOTJB5ttnTRRRelSL+UYtlZzkwdHZO/I/Y+n4+FubOtao0ud+yxx6ZYYpc/sZ5gZG2NlfIp1onmTTFsnhERwSO712JXLFZrlRRvXIo9LlO83YIkp/0AXuTTH9QXqTdTRLQmQIxV3em4444b/LYmH8TKqcEzrr/++iNpqjTvu+222+A++jUWxaRYsTWS+813pdof+1XlsY1w+BQBpjPeYlaiU9bpgw46aBB7LxRaynKRqn6zpE26ATldhUoLn7a3Utw5p4GyiJdYaO8W0kkRMcuHsnDGBrU1EaH77LNPc9hhh9Wn19hjYt/YUp+mW/VfGj8roMX+SE2IzXxNbOjQ7LvvvjmToWhVN7Dbh11GkBvLLbbnnnvm/+fyxxbTtq+xQtxKpULWZdpxhL5kBbmV46siaUBdo071WeU0HUmXIFWVzcesK1gV0VMvvPDCvDOdjWYf9KAH5dXtq7qu/t26Uy9km6Qu1fbp9EIvr8xHsiB5LqvnV0V24pPzTT9iEnKIrGozM/eROuKSSy5p1ltvvWZZrHW9UjQjv7vix9j0Pu8IEjdKsagjnXPOOZMuI1p32mmnFEvX8if2oEyxQjzZZYQ4dZ1PKLpZJ1FemejMFFwxbb/99ik20RiUiQFIxG7snZRiKdzgenUQLxH7nyLlet7kS0OwcXX7BEDT8ccfn0V1ua9rYkvCvDFYabg22A2Fzun3UjY6NUXG7MH/tegMcKRXvvKVyU4npbxvzxFbMabY1bhUv8rvbbfddlBHpLwa9K/2x2axU64P4yQdc8wxeQeWcu940RMdMqRLbkNkm0yxaHpwbYAkbbXVVrlfyjW+I918oocGU8hlg1mk173udbkcNScYR94Yrb4mGEmKxDh5c7YwBPPY1qpUvMgp9n6fVvTPSkczIPHm5o4xKDo/WHwGU6Q9z42NRboZHADi+Oijjx50ZN3gWBWeDPKb3/zm/LvO0kiAUw5YAC0y/aTYQGJoHcppxwEHHJDvDWjlHuqjM5T/62+DEgtW8jU6KzaHHVoOcMp1BWixTjTV4HCfWNI3KOf/yPaYYneVXP9Mf7Sh3t0u8rOlLbbYItelHoNu8GuKlVwpVnYN7lfaF2JroDs79pIhul5kAJ9Svr5O/xkr9woJNLh//fylvO/ghgl44aE+X44xocsuu6xu9uB4VkDzNkU+sEmVeyhvECU/WHhuaN3JkeciXXDBBSnyWOTrdGzs0pJBVAOtNLJ860wP8qY3vWlwP1wmxEWKfLLZuChlly9fnh+kBprfcNLDDz88GRzgKuXVo27kjTaofvMssYNJOu200zJ3KOV9F6CxuCNVVS4fYiSxsEMsp8jrka1GZb0kIYJz/TP9iU0wBm1yjYFeuXLl4FyoByl0uElVxOqtwe/6yFaPOFz9UtVAwxX9r128BCSAF3iHHXaYVE/sGToJaMp7iffaa6907rnnpm222WZQHgeLZIUJHoxH6Q/3iSQ6uW8xmmE0K6C5MJasZfEDWBoz7IPtehuBDIWukSIjdS5LhB511FH5fBto4X/LHRfKZf7dHxYZcecT290kv2nDwQcfPLg3qwe1gUa8FYos2gOxZFBwDwRA5RmIbRwLRcbHFHra4LcCNCD0fK4h3rTDixQpSFNsjZg3GrPHpzbORAaCG6Pcm8qBzj777MzZnTegtRUXhtagvJfDS1IIGLxYrquBVnPfLbfcMoMDQCJFRLYWlQcoz1VzNOdjR5dBf7h36KC5fvcuL5I+p3aU+wLxTDQrYyAqywturfqO3dpyrn0b2juWirMQQ4DVJDN1AKWcXuW3LZ2tHI+3e1B2v/32y8qoTEAS59nrMtjywCgZFBxyIFlxIUYA44FCLAdHDHQ2YCjHhSQ4Lms9paeSUcjuwDVJvBeiId9fXS972cuygSGlqLWilOwY0FU6rRkoZZcVxg1DChUDyG/auf/++zfBsfJvlPhCIdaaELPl33zfDTfcMOd+G5yMg9NPP33wLwOr9EmAISv4fowXPqfxGhSMgwBTzipe+sNYFsPBtT6rQ7MGmsoBwa5tUpsHorP3XAZFucde//rX5/vH25EBGFsHDgZvVQ2TXCW4zaRiLF27jEjSos65PGBtlcZbm83vunIDqc5CgFJIR7M87e9UkwR8wX0az4UMkt3ufIKzZYuYu4JrgvU6jDzDmWeemZ+p1GGrHuBBNaBC9A2AVr/MBt0zFeI2KteXc77rungMitegLuOY9domfTDfNCugBXtuDjzwwHxv2XdCRGTQeUD/+0hBsOOOO+YyXAr8azbTmg3prGD7g6IGUX4MIEa4hYR4PnKc4UBXhtodCdTFPaPeUHinVG9wt95665xalPsGN8d9lMXhvHi261HGyziM+J3sW1BeGs9JMgwjSWpwNBuT4bKF3MencJkQh9lXWX4v33KPFM656aabNqTGMJLkZiFo4tWY4W6AgxUTY0cccUTOoNguzvdTiLiq/WDlvI6dDZVUBsrqUG83353OKp03m3qmK6NOHKoQgJS2AQOfWptCh8ogesMb3tAsC59S6DZ5V2Hb9ay77rq5uDrsrDId4c4ygCNgl1kSJ68/NXcqorPm0IB16KGHDm5BxMst0qZwtwxOyRZO1O+8885NGAOZAajHx1gtBM2Ko3FK2mKGrOfRtuUMPUFWapwoTOqctUeDdWDZ6pk+VIi4ig3u89tIN5mJyhuvDBFH90PSs2+33Xb52J+63ODkLA60UacThUj7DbZnCrdLznPbrkbbjzzyyHxaHlzgImI5sF3jd1QDOJ+o/hCxgIzodlKetl9IL/Tmm2+ey4RfLjt1ZUUKV0x+fj+QKF4++hOQ4X5tMnMjZy/yfK6nBwPpHnvska8xdqSFtlwZ8oJdGvlN4KQW65PqjMFaJcVgZ78X6zAunvETecey5abSYPHppS996aTybT+a+nbddddJbQhQphDHg+viLU8xpZWtseJvcx1riLXoPnW7igWp0gDAwMpz71NOOSXfi5XEjVBfV4759cpxsTpDiZ9UnoWnnDpLWW3kBhlG2shaLWU5eIcRtwG3kXLuccghh+RiYbxMctaWevRNGRflA1S5POexe5RyvgMEg//jZUsh5lOI/UlWp/PxEg6aZiw44ks92oGc56At530Hp0+XX3754Nr6YFaiE0q9/XQTelLRD6LyAeEI2LLc/Vg18sbIZl1Ey6BwHOAq05HrwoTPUzvKEMsUYlM9rLEY3Hwp3Uoa9zbVdTsub5nvcuzto/BLJVoTXS32RB+c0hZEDw03RkPfQTgtMW6OF3lGv7NOh5GdWOhyhep7lHO+WbZFn3KPeCGyiJM4UP/bhlw4luciOVj5pXxdDy4Vsy/NLrvsMjDKinpAPL/61a9uXvOa1+Ssl64r/VLX0T52z9K3+iV8fzlErJQLYA1UkHKufM85yQsRSHzqOJ2sgRRPWROJgXaD3dw19DyAofhTbnWiD9LoMqClYb7NKVK2zUW6Rtyb6ynDhcq1tZhWplC5v29EbNdt1DaxddLBh58ss3+mvfNI2VrUa7P2EJWAQ3wJICAylSsDkS+u/rh/3W4v63Rl3buAYtj9y+/u57lXrFiRRan/6XUs2ULqYUCZt/RiEPXDxmqm8dDu0n/tdhtTlqtv/cbiHjaWcwZaeYD+e+F6wEDjwAWo9C8SBji4VHAnLyXFnkSx6caaRj3Q1rQRmaY9HK72b0e4KK4EaJzYRXzzb8YsyiTH9zTVLfjpHmgL3uWrd0OOYVbjMJ1UjYDHKm9bsat3t/m/qgfa/PfpyGqkB3ExcWnQK+lvlH7GAKNmmG40ssbMseIeaHPssL746vXArNwbq1d1f1XfAxM90ANtoi/6oxH2QA+0EXZuX/VED/RAm+iL/miEPdADbYSd21c90QM90Cb6oj8aYQ/0QBth5/ZVT/RAD7SJvuiPRtgDPdBG2Ll91RM90ANtoi/6oxH2QA+0EXZuX/VED/RAm+iL/miEPdADbYSd21c90QM90Cb6oj8aYQ/0QBth5/ZVT/RAD7SJvuiPRtgD/wOJw0oyWBdURwAAAABJRU5ErkJggg==;" vertex="1" parent="1">
          <mxGeometry x="260" y="262" width="88.85" height="90" as="geometry" />
        </mxCell>
        <mxCell id="55osS0tkBlGxSEz1cU8t-12" style="edgeStyle=orthogonalEdgeStyle;rounded=0;orthogonalLoop=1;jettySize=auto;html=1;entryX=0.979;entryY=0.078;entryDx=0;entryDy=0;entryPerimeter=0;" edge="1" parent="1" source="55osS0tkBlGxSEz1cU8t-6" target="55osS0tkBlGxSEz1cU8t-5">
          <mxGeometry relative="1" as="geometry" />
        </mxCell>
        <mxCell id="55osS0tkBlGxSEz1cU8t-6" value="" style="html=1;verticalLabelPosition=bottom;align=center;labelBackgroundColor=#ffffff;verticalAlign=top;strokeWidth=2;strokeColor=#0080F0;shadow=0;dashed=0;shape=mxgraph.ios7.icons.tools;pointerEvents=1" vertex="1" parent="1">
          <mxGeometry x="460" y="78" width="90" height="62" as="geometry" />
        </mxCell>
        <mxCell id="55osS0tkBlGxSEz1cU8t-9" style="edgeStyle=orthogonalEdgeStyle;rounded=0;orthogonalLoop=1;jettySize=auto;html=1;" edge="1" parent="1">
          <mxGeometry relative="1" as="geometry">
            <mxPoint x="140" y="320" as="sourcePoint" />
            <mxPoint x="260" y="320" as="targetPoint" />
          </mxGeometry>
        </mxCell>
        <mxCell id="55osS0tkBlGxSEz1cU8t-7" value="Prompt" style="rounded=0;whiteSpace=wrap;html=1;" vertex="1" parent="1">
          <mxGeometry x="20" y="277" width="120" height="60" as="geometry" />
        </mxCell>
        <mxCell id="55osS0tkBlGxSEz1cU8t-15" value="BedRock Invoke" style="text;html=1;strokeColor=none;fillColor=none;align=center;verticalAlign=middle;whiteSpace=wrap;rounded=0;" vertex="1" parent="1">
          <mxGeometry x="230" y="40" width="60" height="30" as="geometry" />
        </mxCell>
        <mxCell id="55osS0tkBlGxSEz1cU8t-16" value="File_read &amp;amp; File _write tools" style="text;html=1;strokeColor=none;fillColor=none;align=center;verticalAlign=middle;whiteSpace=wrap;rounded=0;" vertex="1" parent="1">
          <mxGeometry x="460" y="30" width="60" height="30" as="geometry" />
        </mxCell>
        <mxCell id="55osS0tkBlGxSEz1cU8t-17" value="Streamlit Documentt Summarizer App" style="text;html=1;strokeColor=none;fillColor=none;align=center;verticalAlign=middle;whiteSpace=wrap;rounded=0;" vertex="1" parent="1">
          <mxGeometry x="40" y="350" width="60" height="30" as="geometry" />
        </mxCell>
        <mxCell id="55osS0tkBlGxSEz1cU8t-18" value="VPC" style="sketch=0;outlineConnect=0;gradientColor=none;html=1;whiteSpace=wrap;fontSize=12;fontStyle=0;shape=mxgraph.aws4.group;grIcon=mxgraph.aws4.group_vpc;strokeColor=#879196;fillColor=none;verticalAlign=top;align=left;spacingLeft=30;fontColor=#879196;dashed=0;" vertex="1" parent="1">
          <mxGeometry x="200" y="10" width="460" height="430" as="geometry" />
        </mxCell>
      </root>
    </mxGraphModel>
  </diagram>
</mxfile>
